<?xml version="1.0" standalone="no"?>
<!DOCTYPE svg PUBLIC "-//W3C//DTD SVG 20010904//EN"
 "http://www.w3.org/TR/2001/REC-SVG-20010904/DTD/svg10.dtd">
<svg version="1.0" xmlns="http://www.w3.org/2000/svg"
 width="1440.000000pt" height="1080.000000pt" viewBox="0 0 1440.000000 1080.000000"
 preserveAspectRatio="xMidYMid meet">

<g transform="translate(0.000000,1080.000000) scale(0.100000,-0.100000)"
fill="#000000" stroke="none">
<path d="M4045 10789 c747 -49 1912 -51 2825 -4 215 11 49 12 -1350 12 -877 0
-1541 -3 -1475 -8z"/>
<path d="M12085 9809 c-1698 -67 -3177 -160 -4930 -309 -989 -84 -1297 -108
-1780 -135 -371 -21 -1077 -37 -1325 -30 -338 9 -1573 26 -1577 21 -6 -6 53
-36 87 -46 24 -7 23 -8 -15 -18 -52 -15 -105 -49 -85 -55 26 -8 361 -47 458
-54 118 -8 108 -24 -20 -30 -51 -3 -99 -9 -107 -13 -34 -18 458 -41 720 -33
143 4 198 3 203 -5 5 -8 43 -12 112 -12 104 0 143 -15 62 -23 -24 -3 18 -3 92
-1 74 2 234 13 355 24 216 21 437 29 565 21 36 -2 101 1 146 8 44 7 96 11 115
9 l34 -4 -45 -13 c-66 -20 -232 -30 -337 -20 -73 7 -101 5 -135 -7 -23 -8 -65
-14 -93 -13 -27 0 -70 -4 -95 -10 -25 -5 -78 -10 -117 -11 -79 0 -92 -10 -42
-31 l32 -13 -24 -9 c-13 -5 -102 -12 -197 -17 -95 -4 -176 -11 -179 -14 -4 -3
9 -6 28 -6 44 0 168 -35 149 -42 -8 -3 23 -4 70 -2 l85 4 -44 -15 c-76 -25
-199 -37 -476 -44 -148 -4 -233 -8 -189 -9 193 -4 194 -32 2 -32 -104 0 -139
3 -128 11 11 8 -6 9 -60 4 -53 -5 -80 -12 -92 -25 -19 -21 -117 -40 -204 -40
-32 0 -80 -7 -106 -15 -26 -7 -120 -21 -210 -30 -203 -19 -331 -35 -337 -41
-2 -2 29 -4 70 -4 41 0 81 -5 89 -10 13 -9 13 -10 -1 -10 -8 0 -126 -11 -262
-25 -242 -24 -370 -44 -404 -63 -14 -8 -12 -12 16 -26 27 -15 57 -16 214 -12
211 6 188 -9 -33 -21 l-135 -8 0 -30 c0 -29 0 -29 -50 -25 -86 7 -128 3 -137
-14 -5 -9 -13 -16 -18 -16 -5 0 -21 -5 -37 -12 l-28 -11 40 -8 c62 -13 479
-21 586 -12 82 7 96 6 91 -6 -5 -12 13 -13 124 -6 71 4 215 8 320 9 161 1 193
4 207 17 22 23 126 32 227 20 105 -12 214 -19 535 -31 248 -10 424 -26 437
-38 4 -4 -52 -3 -125 1 -222 14 -469 -2 -428 -28 16 -9 94 -10 251 -2 l115 6
-55 -15 c-37 -11 -98 -16 -190 -16 -82 0 -121 -3 -100 -7 l35 -7 -45 -7 c-25
-4 -88 -9 -140 -12 -61 -3 -167 -21 -295 -51 -271 -62 -354 -70 -532 -54 -126
12 -150 11 -205 -3 l-63 -15 123 -1 c79 -1 121 -5 117 -11 -3 -5 -19 -10 -36
-10 -16 0 -29 -5 -29 -11 0 -6 11 -8 28 -5 32 7 95 -8 72 -17 -27 -11 -292
-75 -420 -102 -109 -23 -129 -30 -158 -58 -33 -32 -34 -32 -128 -31 -72 1 -94
-2 -94 -12 0 -18 -59 -34 -153 -41 -84 -6 -97 -21 -34 -37 60 -15 44 -29 -25
-22 -35 3 -112 8 -173 11 -85 4 -104 3 -82 -6 20 -8 27 -18 27 -37 0 -14 7
-34 17 -44 15 -17 14 -18 -24 -18 -33 0 -42 -4 -46 -21 -5 -19 -10 -20 -79
-13 -40 4 -80 8 -88 8 -8 1 -16 -9 -18 -21 -3 -21 -9 -23 -67 -23 -70 0 -91
13 -48 28 26 10 25 10 -19 11 -26 1 -49 -3 -52 -7 -3 -5 22 -22 55 -38 33 -15
62 -31 65 -35 2 -4 -23 -16 -55 -28 -32 -12 -74 -32 -94 -45 -30 -20 -38 -22
-54 -12 -10 7 -43 22 -74 34 -60 22 -58 22 -181 -21 -30 -10 -38 -27 -13 -27
18 0 34 -29 51 -92 12 -48 12 -48 -13 -54 -14 -4 -71 3 -127 15 -55 12 -105
21 -111 21 -5 -1 28 -16 74 -35 101 -41 119 -54 70 -56 -23 -1 -27 -3 -12 -6
15 -3 23 -12 23 -25 0 -22 12 -22 -205 -2 l-60 6 70 -44 c83 -52 235 -164 236
-174 0 -3 -17 -17 -38 -29 -36 -23 -44 -23 -198 -18 -193 6 -257 -7 -125 -26
114 -17 183 -45 233 -94 l42 -42 -45 -5 c-31 -3 -40 -7 -27 -12 20 -9 22 -27
5 -63 -13 -29 -33 -32 -47 -7 -9 16 -12 16 -38 2 -38 -21 -73 -76 -73 -116 0
-60 5 -64 71 -57 48 5 59 3 59 -9 0 -8 -5 -19 -11 -25 -7 -7 -9 -19 -6 -27 5
-12 17 -14 55 -9 71 8 75 -9 14 -70 -56 -57 -72 -89 -62 -127 5 -20 12 -25 36
-23 40 2 74 -6 74 -17 0 -6 -15 -10 -32 -10 l-33 -1 44 -38 c36 -31 43 -42 39
-64 -4 -22 -2 -27 16 -27 52 0 88 -24 49 -32 -12 -3 -3 -11 27 -24 25 -12 72
-44 105 -73 33 -29 76 -61 95 -71 l35 -19 -72 6 c-73 6 -82 2 -63 -27 7 -11 3
-18 -13 -27 -21 -12 -20 -12 14 -13 46 0 91 -34 87 -64 -3 -22 -13 -24 -79
-11 -31 6 -37 4 -41 -13 -5 -16 -17 -21 -72 -26 -61 -7 -66 -9 -66 -31 0 -13
-5 -27 -12 -31 -7 -4 -62 -9 -123 -10 -148 -3 -316 -38 -300 -63 9 -16 56 -18
113 -5 31 8 158 25 282 39 123 15 226 28 228 30 2 2 31 -10 64 -25 33 -16 82
-34 109 -41 49 -13 63 -31 33 -43 -8 -3 -13 -10 -10 -15 7 -11 -57 -18 -328
-36 -305 -21 -339 -36 -66 -30 118 3 242 8 275 11 52 6 58 5 47 -8 -6 -8 -9
-18 -5 -21 3 -4 -23 -7 -59 -7 -36 0 -87 -3 -114 -8 -45 -6 -41 -7 48 -12 98
-5 124 -13 98 -31 -10 -7 23 -8 100 -3 103 6 114 5 102 -9 -11 -13 -8 -17 23
-27 20 -7 35 -14 33 -15 -2 -2 -128 -11 -279 -20 -152 -9 -308 -19 -347 -23
-52 -6 -75 -5 -88 5 -21 16 -106 17 -121 2 -5 -5 -61 -16 -124 -24 l-114 -14
205 4 c191 4 213 0 118 -20 -16 -3 -28 -10 -28 -17 0 -7 16 -9 53 -4 117 16
324 25 527 24 277 -1 210 -13 -146 -27 -144 -6 -267 -12 -275 -15 -8 -2 -27
-7 -44 -11 -27 -6 -28 -8 -11 -17 13 -7 140 -9 390 -5 327 5 363 4 306 -8
-101 -20 -526 -59 -615 -55 -179 7 -358 3 -351 -9 8 -12 56 -19 213 -31 146
-10 183 -17 183 -33 0 -7 -107 -8 -335 -5 -190 3 -332 2 -329 -3 3 -5 17 -9
32 -9 15 0 34 -5 42 -10 10 -7 -9 -10 -62 -10 -69 0 -78 -2 -78 -19 0 -15 13
-20 88 -30 95 -14 173 -39 179 -58 3 -7 -10 -21 -27 -32 l-32 -19 69 -6 c37
-3 107 -8 155 -12 60 -4 88 -11 92 -20 4 -10 25 -14 73 -15 37 -1 82 -5 98 -9
27 -7 25 -8 -20 -10 l-50 -3 50 -8 c28 -4 147 -5 266 -2 187 5 300 0 287 -12
-2 -2 -143 -11 -313 -20 -171 -9 -355 -22 -409 -30 -55 -8 -103 -15 -108 -15
-20 0 -5 -18 20 -23 85 -19 66 -48 -64 -102 -65 -26 -100 -46 -102 -58 -2 -9
2 -18 10 -19 7 -1 -20 -4 -61 -7 -51 -4 -76 -10 -79 -20 -4 -12 10 -13 79 -8
164 13 406 20 444 13 34 -7 37 -9 21 -18 -13 -7 -62 -8 -142 -4 -123 7 -124 7
-171 -21 -27 -15 -64 -28 -83 -29 -19 0 -71 -1 -114 -2 -44 -1 -77 -4 -74 -7
3 -3 97 -5 209 -5 263 0 487 -11 439 -21 -19 -5 -127 -13 -240 -20 -113 -6
-209 -15 -214 -20 -6 -5 -1 -21 13 -40 12 -17 20 -37 17 -44 -8 -21 -69 -28
-193 -22 -113 5 -113 5 -113 -17 0 -21 6 -24 72 -30 40 -4 77 -11 82 -16 16
-16 -21 -47 -72 -60 -26 -7 -55 -14 -64 -17 -10 -2 -18 -13 -18 -23 0 -23 -7
-21 275 -56 115 -14 252 -35 305 -46 76 -17 125 -20 241 -19 153 3 428 -16
443 -29 10 -10 -44 -16 -236 -28 -132 -8 -160 -13 -144 -29 16 -17 587 -8 782
11 106 10 203 16 218 12 45 -11 30 -34 -36 -56 l-63 -20 105 5 c93 4 102 3 80
-9 -30 -17 -133 -39 -290 -61 -63 -9 -128 -23 -145 -30 -29 -13 -27 -13 42
-14 39 -1 84 -6 100 -13 27 -11 25 -12 -34 -19 -34 -4 -72 -13 -85 -20 -13 -7
-75 -14 -148 -16 -111 -3 -246 -17 -395 -40 -43 -7 -31 -9 80 -14 144 -6 217
-28 228 -68 5 -21 4 -21 -216 -23 -235 -2 -238 -1 108 -27 83 -6 189 -8 236
-5 55 4 93 2 106 -4 23 -13 547 -36 1208 -53 568 -15 2104 -15 2625 0 897 25
1579 59 2330 116 314 24 901 77 1045 94 l70 8 -80 3 c-236 8 -212 17 50 20
154 1 294 6 310 10 17 4 -73 9 -200 11 -181 3 -235 7 -255 19 -23 14 25 15
482 20 278 3 509 8 513 11 3 4 -47 9 -112 11 -126 6 -157 13 -149 34 4 11 -10
14 -68 14 -108 0 -419 19 -511 31 -79 11 -153 34 -142 45 3 3 69 -1 147 -10
161 -19 566 -36 780 -34 144 1 144 1 50 8 -52 4 -256 13 -452 20 -197 8 -358
17 -358 20 0 4 12 12 27 19 46 21 11 28 -182 35 -99 4 -184 11 -188 15 -4 4
24 14 62 21 65 12 168 10 306 -5 22 -3 4 3 -40 13 -44 9 -86 21 -94 26 -26 17
28 27 101 20 42 -4 68 -3 68 3 0 5 -61 15 -135 21 -75 6 -145 17 -157 23 -21
11 -21 12 -2 23 13 7 83 10 209 9 204 -1 201 4 -22 32 -72 9 -165 15 -206 13
-95 -4 -86 14 11 23 84 8 382 -1 382 -12 0 -4 -12 -10 -27 -12 -16 -2 -5 -3
22 -2 28 2 87 -1 133 -7 148 -17 113 3 -47 28 -58 8 -34 24 39 24 30 0 174 9
320 20 146 11 271 20 279 20 10 0 11 3 2 14 -8 10 -8 16 1 23 40 30 171 61
238 56 30 -3 142 5 248 16 107 12 246 22 310 22 90 1 108 3 77 10 -22 4 -207
8 -411 8 -387 1 -560 11 -374 21 52 3 271 4 485 2 237 -2 385 0 377 6 -14 10
76 18 663 57 460 31 476 33 234 31 -146 -1 -192 2 -181 10 11 8 -65 11 -294
10 -253 -1 -311 -4 -320 -15 -12 -15 2 -15 -404 9 -85 5 -204 15 -265 22 -185
19 -89 29 377 37 236 4 431 10 434 14 3 3 -97 5 -222 4 -221 -2 -284 3 -284
22 0 19 123 26 430 25 173 0 304 3 290 7 -14 4 -113 8 -220 9 -201 2 -303 10
-265 22 25 8 799 25 1550 34 308 3 568 10 579 14 11 4 -29 10 -95 14 -63 3
-177 14 -254 24 -108 14 -164 16 -245 10 -58 -5 -177 -6 -265 -3 -199 7 -703
34 -730 40 -11 2 120 3 290 3 518 -1 1478 12 1515 20 25 6 -32 12 -192 21
-126 8 -228 17 -228 21 0 10 98 28 193 36 51 5 77 11 77 19 0 7 20 40 44 73
60 81 76 114 76 157 0 36 -1 37 -87 77 -49 22 -121 53 -161 69 -40 16 -98 42
-129 58 l-56 28 174 6 c99 4 206 13 249 22 84 18 263 75 256 82 -2 2 -44 -3
-92 -11 -102 -18 -170 -20 -179 -6 -4 6 16 10 52 10 71 0 133 10 133 21 0 4
-11 21 -25 37 -55 66 -96 62 650 62 l675 0 0 60 c0 57 -1 60 -22 56 -55 -11
-1069 -28 -1433 -24 -424 5 -451 8 -546 57 -51 27 -103 27 -333 0 -174 -20
-289 -21 -317 -3 -9 6 28 11 96 15 l110 5 -126 2 c-118 2 -127 3 -148 26 l-22
24 833 5 c458 3 921 10 1028 17 321 18 747 61 858 85 12 3 22 12 22 20 0 8 -1
15 -2 16 -2 0 -86 5 -188 9 -102 5 -195 12 -207 15 -38 12 -26 25 25 26 26 1
61 4 77 8 l30 6 -25 18 c-32 22 -74 33 -180 47 -206 26 -245 59 -71 60 35 0
62 2 60 4 -6 6 -321 59 -510 86 -120 17 -161 19 -225 11 -86 -11 -218 0 -285
23 -33 12 -48 12 -92 1 -53 -14 -118 -19 -172 -15 -27 2 -25 3 17 15 60 16
134 59 142 82 17 42 -64 72 -279 103 -168 25 -206 34 -266 66 -42 23 -49 24
-110 15 -158 -26 -420 -8 -497 34 -27 14 -27 14 23 16 31 1 39 3 20 6 -81 9
-92 14 -104 39 -6 15 -10 28 -9 29 2 2 194 6 428 10 l425 7 55 31 55 31 620 1
c604 1 682 5 883 36 63 10 75 16 85 36 8 18 8 32 0 53 -10 28 -10 28 36 40 25
7 90 14 144 17 97 6 97 6 97 32 0 35 -52 57 -102 43 -21 -6 -43 -5 -58 1 l-25
10 30 7 c17 3 -69 4 -190 2 -200 -4 -228 -3 -305 17 -46 11 -88 25 -94 31 -5
5 3 22 23 45 17 20 31 40 31 46 0 10 -15 25 -70 68 -24 20 -25 20 -3 21 21 0
53 24 53 40 0 4 -25 11 -56 15 -31 4 -54 8 -52 10 2 2 48 8 102 14 91 9 146
28 146 50 0 15 -26 20 -145 27 -63 4 -115 11 -115 15 0 5 6 10 13 10 6 1 -9 5
-34 9 -26 5 -68 23 -97 43 l-50 34 -1054 6 c-579 3 -1370 13 -1758 22 -1586
35 -3029 37 -3775 5 -132 -5 -359 -15 -505 -21 -284 -13 -1057 -7 -1415 11
-817 39 -983 44 -1485 44 -468 1 -548 -2 -639 -17 -115 -20 -153 -18 -401 16
-173 23 -292 26 -550 13 -151 -8 -183 -7 -232 8 -70 20 -83 35 -25 29 23 -3
87 5 142 16 140 30 249 35 480 22 110 -6 243 -13 295 -16 l95 -4 -75 9 c-168
22 -83 24 330 10 763 -26 988 -31 1467 -31 285 0 558 3 608 7 76 5 94 4 107
-10 9 -8 18 -21 20 -27 3 -9 89 -9 338 0 184 6 688 16 1119 22 869 13 2206 2
3361 -28 366 -9 991 -16 1475 -17 842 -1 1068 5 1530 40 174 13 266 22 537 51
61 6 68 17 17 27 -25 5 -30 10 -26 26 5 18 0 20 -39 20 -25 0 -57 6 -72 14
-37 19 -104 96 -98 112 10 26 60 48 153 68 l95 21 2 46 c2 43 8 53 64 113 51
55 62 73 62 101 0 55 -30 60 -345 60 -256 0 -273 2 -328 23 -102 39 -230 52
-633 60 -256 6 -386 12 -399 20 -16 9 -2 12 75 13 122 2 89 8 -225 44 -258 30
-335 47 -188 42 51 -2 94 1 96 6 1 5 32 11 67 15 79 7 50 19 -50 21 -109 2
-109 21 0 21 197 0 845 -49 1010 -77 29 -4 33 -3 23 8 -7 7 -13 22 -13 32 0
17 5 19 38 13 61 -11 182 -19 182 -13 0 4 -15 13 -32 22 -18 8 -45 24 -59 35
-28 23 -85 39 -137 40 -18 0 -43 7 -56 15 -12 8 -65 24 -116 36 -51 11 -101
24 -109 29 -26 15 125 11 199 -5 75 -17 114 -19 106 -6 -14 22 95 28 114 6 7
-8 29 -15 50 -15 29 0 41 6 54 25 16 25 16 25 -13 25 -37 0 -83 20 -78 34 4
12 57 27 68 20 5 -2 6 -11 3 -18 -8 -22 13 -28 38 -12 13 8 59 19 103 25 85
12 99 19 90 43 -6 15 -91 58 -145 73 -35 10 -70 33 -70 47 0 21 85 -3 184 -53
88 -45 101 -49 129 -40 16 6 53 11 80 11 49 0 50 1 33 19 -17 18 -17 20 1 30
17 10 16 10 -4 11 -12 0 -25 -4 -28 -10 -8 -13 -45 -13 -45 0 0 5 -11 12 -25
16 -39 10 -29 22 25 29 56 8 58 19 5 29 -19 4 -35 12 -35 18 0 7 28 8 88 4
l87 -6 -90 24 c-117 31 -336 119 -280 112 67 -8 191 -16 173 -10 -18 6 -34 41
-24 51 5 6 125 -6 240 -23 25 -4 36 -3 32 4 -3 6 -29 13 -56 17 -28 4 -48 10
-45 15 3 4 22 4 42 0 21 -4 70 -11 108 -14 99 -8 58 3 -253 69 -252 53 -432
102 -384 104 12 1 100 -15 195 -34 181 -36 349 -65 382 -65 39 0 -9 29 -115
70 -77 29 -120 40 -162 40 -31 0 -60 5 -63 10 -4 6 31 10 97 11 l103 1 -85 21
-85 22 60 3 c74 3 99 11 70 22 -11 4 -23 3 -26 -2 -7 -11 -63 14 -75 33 -5 9
6 10 42 5 27 -4 81 -9 119 -12 84 -7 75 5 -27 37 -64 20 -89 39 -51 39 51 0
-18 12 -227 40 -374 49 -704 106 -635 109 33 2 454 -48 637 -74 94 -14 173
-24 174 -22 2 2 -40 15 -94 30 -53 15 -104 35 -112 44 -14 14 -10 15 35 9 28
-4 59 -10 70 -13 11 -3 17 -2 13 2 -3 3 -93 24 -200 45 -106 21 -227 50 -268
63 -77 26 -68 34 17 18 79 -16 133 -20 133 -10 0 5 -11 9 -24 9 -38 0 -148 37
-186 63 -32 22 -45 24 -150 24 -63 0 -200 -4 -305 -8z m-2050 -359 c41 -10
-67 -11 -150 0 -58 7 -57 7 30 7 50 1 104 -3 120 -7z m2653 -144 c9 -9 -69 -7
-112 3 -74 18 -57 28 24 15 45 -7 85 -15 88 -18z m-7969 -140 c-2 -2 -74 -9
-159 -16 -85 -6 -173 -13 -195 -17 -32 -4 -38 -3 -28 7 7 7 29 16 50 20 40 8
339 13 332 6z m822 -16 c12 -7 26 -7 37 -2 9 5 60 6 112 3 l95 -7 -75 -7
c-131 -11 -290 -15 -285 -6 3 4 12 6 19 3 7 -3 19 2 26 11 14 17 43 19 71 5z
m-216 -20 c28 -7 28 -8 5 -9 -14 -1 -43 -4 -65 -7 -38 -5 -39 -4 -21 10 21 17
34 18 81 6z m7755 -40 c26 0 31 -3 22 -12 -9 -9 -26 -8 -74 5 -45 12 -51 15
-23 12 22 -3 56 -5 75 -5z m-8008 -32 c-9 -9 -55 -14 -135 -17 -67 -1 -119 0
-116 3 4 4 58 10 120 15 63 4 121 9 129 10 11 1 11 -2 2 -11z m7252 -23 c142
-19 189 -37 71 -28 -44 3 -168 17 -275 29 l-195 23 140 -4 c77 -2 194 -11 259
-20z m-3264 5 c35 -4 -22 -7 -160 -7 -150 1 -188 3 -125 7 130 9 222 9 285 0z
m-774 -12 c4 -6 3 -8 -4 -4 -6 3 -80 2 -164 -3 -202 -13 -808 -34 -814 -28 -9
9 291 30 536 37 413 11 438 11 446 -2z m1827 -9 c15 -6 -19 -8 -102 -4 -68 3
-145 6 -170 6 -43 1 -44 2 -16 10 37 10 259 1 288 -12z m-4484 -23 c-5 -6
-207 -24 -349 -31 -105 -6 -113 -5 -94 9 15 11 52 16 130 19 212 6 317 7 313
3z m5444 -3 c-23 -2 -64 -2 -90 0 -26 2 -7 3 42 3 50 0 71 -1 48 -3z m-5989
-22 c3 -5 -27 -12 -67 -16 -39 -3 -137 -13 -217 -21 -80 -8 -181 -14 -225 -12
l-80 3 55 12 c30 7 151 17 268 22 118 5 216 12 220 15 9 9 40 7 46 -3z m1861
-2 c-58 -12 -144 -11 -125 1 8 5 49 9 90 9 66 -1 70 -2 35 -10z m3730 1 c20
-5 -5 -8 -70 -8 -68 1 -89 3 -65 8 45 10 97 10 135 0z m2128 -42 c31 -11 57
-23 57 -25 0 -8 -83 9 -122 24 -21 8 -38 19 -38 25 0 10 19 6 103 -24z m-130
-110 c39 -12 66 -23 60 -25 -16 -6 -121 21 -164 42 l-34 15 33 -5 c18 -2 65
-14 105 -27z m-1493 -39 c113 -6 207 -13 209 -15 7 -7 -185 -3 -471 10 -152 6
-280 15 -285 19 -8 9 229 2 547 -14z m-2720 -21 c0 -4 -39 -8 -87 -7 -57 0
-81 3 -68 9 26 10 155 9 155 -2z m4119 -13 c34 -17 13 -26 -35 -14 -21 6 -51
13 -67 16 -15 3 -30 10 -34 15 -8 14 104 0 136 -17z m183 -15 c11 0 16 -4 13
-10 -12 -19 -155 -7 -155 13 0 6 22 8 61 3 34 -3 71 -6 81 -6z m-2887 -40
c-24 -11 -150 -11 -225 0 -41 5 -17 7 95 8 92 0 142 -3 130 -8z m1788 3 c-34
-2 -93 -2 -130 0 -37 2 -9 3 62 3 72 0 102 -1 68 -3z m166 -39 c2 -2 -53 -4
-122 -4 -85 0 -127 4 -127 11 0 8 37 9 123 4 67 -4 124 -9 126 -11z m276 -2
c26 -5 34 -10 24 -14 -17 -7 -157 6 -166 16 -9 8 93 7 142 -2z m189 -37 c31
-8 70 -22 84 -30 l27 -16 -35 6 c-74 12 -170 38 -176 46 -8 13 35 11 100 -6z
m-9044 -56 c-11 -8 8 -9 69 -6 46 3 100 3 120 -1 34 -6 32 -7 -34 -18 -174
-32 -421 -63 -540 -69 -71 -4 -134 -9 -138 -12 -4 -3 -34 -6 -65 -7 -31 -2
-87 -6 -124 -11 -78 -9 -91 4 -29 28 66 27 196 39 281 26 63 -10 80 -9 110 4
34 15 34 15 -45 10 -107 -7 -90 13 23 28 89 12 132 7 132 -15 0 -11 8 -12 38
-4 20 5 62 13 92 17 l55 8 -54 2 c-34 0 -51 5 -45 10 12 12 47 18 114 19 41 1
51 -1 40 -9z m9194 -45 c101 -20 110 -37 16 -28 -41 4 -77 10 -80 14 -3 4 -25
14 -50 23 l-45 17 45 -6 c25 -3 76 -12 114 -20z m-8467 -14 l38 -20 -150 0
c-91 0 -166 5 -190 13 l-40 12 80 6 c174 12 223 10 262 -11z m-1697 -69 c0 -6
-5 -13 -10 -16 -6 -4 -8 -11 -5 -16 4 -5 -14 -9 -40 -9 -52 0 -52 12 -2 34 39
17 57 19 57 7z m9040 -50 c38 -7 30 -9 -52 -10 -60 -1 -98 3 -98 9 0 12 85 12
150 1z m-661 -41 c107 -11 197 -23 200 -26 3 -4 -66 -4 -154 0 -88 3 -263 9
-390 12 -161 5 -234 10 -245 19 -8 7 -22 15 -30 19 -32 13 435 -5 619 -24z
m-5569 -1 c-25 -4 -81 -7 -125 -7 -64 1 -72 2 -40 8 22 4 78 7 125 7 73 0 79
-1 40 -8z m6498 -26 c-10 -2 -26 -2 -35 0 -10 3 -2 5 17 5 19 0 27 -2 18 -5z
m-6098 -22 c59 -5 26 -8 -155 -14 -126 -5 -322 -13 -435 -18 -346 -16 -733
-22 -760 -11 -33 12 40 18 400 32 151 6 298 12 325 14 98 5 551 3 625 -3z
m-1405 -40 c16 -7 14 -9 -14 -14 -19 -4 -68 -7 -110 -8 -42 0 -122 -6 -178
-12 -95 -11 -156 -7 -139 10 8 8 267 30 361 31 33 0 69 -3 80 -7z m1930 -32
c-149 -14 -811 -22 -800 -10 11 11 204 16 670 17 154 1 189 -1 130 -7z m-4821
-774 c4 -12 -5 -15 -52 -15 -52 1 -55 2 -38 15 26 20 82 19 90 0z m-364 -240
c23 -28 5 -35 -35 -14 -49 26 -48 25 -41 38 8 12 60 -4 76 -24z m1120 -805
c69 -11 141 -20 160 -21 l35 -1 -34 -11 c-26 -8 -50 -6 -116 10 -76 18 -89 19
-147 7 -59 -13 -130 -12 -218 3 l-35 6 35 12 c51 20 178 17 320 -5z m-708
-922 c-16 -16 -86 -5 -90 13 -3 14 3 15 48 6 31 -6 48 -13 42 -19z m3063 -718
c127 -5 300 -10 385 -11 151 -2 153 -2 70 -10 -102 -11 -815 -16 -1202 -8
-220 4 -280 8 -294 20 -15 12 1 15 137 20 176 7 568 2 904 -11z m4900 -131
c336 -6 611 -12 613 -14 10 -9 -504 -17 -783 -12 -1065 21 -1528 32 -1420 37
166 7 861 2 1590 -11z"/>
<path d="M3865 8903 c-16 -3 -34 -9 -40 -14 -10 -10 107 -4 215 11 48 7 42 8
-45 7 -55 0 -113 -2 -130 -4z"/>
<path d="M1633 8340 c54 -10 62 -14 52 -29 -3 -6 -39 -11 -80 -11 -41 0 -77
-4 -80 -10 -3 -5 13 -21 37 -36 46 -30 48 -27 -27 -55 l-30 -11 35 -18 c19
-10 44 -29 56 -42 19 -23 32 -26 170 -37 240 -19 304 -22 266 -12 -64 17 -56
33 21 42 33 4 9 6 -68 5 -119 -1 -171 7 -160 25 3 5 39 6 80 2 98 -8 100 10 3
31 -150 33 -168 38 -168 47 0 4 18 13 41 19 32 9 75 8 191 -5 83 -9 152 -14
154 -12 2 2 -22 10 -53 16 -95 21 -125 37 -121 63 3 21 -2 23 -62 29 -36 4
-119 7 -185 7 -95 0 -110 -2 -72 -8z"/>
<path d="M2081 8076 c2 -2 31 -6 64 -9 39 -4 50 -3 30 2 -31 9 -102 14 -94 7z"/>
<path d="M2690 7580 c52 -4 131 -8 175 -7 79 0 79 0 -25 7 -58 4 -136 7 -175
7 -65 0 -64 -1 25 -7z"/>
<path d="M14303 6973 c9 -2 23 -2 30 0 6 3 -1 5 -18 5 -16 0 -22 -2 -12 -5z"/>
<path d="M9485 3710 c90 -12 259 -21 210 -10 -22 4 -92 11 -155 14 -85 3 -99
3 -55 -4z"/>
</g>
</svg>
