<?xml version="1.0" standalone="no"?>
<!DOCTYPE svg PUBLIC "-//W3C//DTD SVG 20010904//EN"
 "http://www.w3.org/TR/2001/REC-SVG-20010904/DTD/svg10.dtd">
<svg version="1.0" xmlns="http://www.w3.org/2000/svg"
 width="1920.000000pt" height="1440.000000pt" viewBox="0 0 1920.000000 1440.000000"
 preserveAspectRatio="xMidYMid meet">

<g transform="translate(0.000000,1440.000000) scale(0.100000,-0.100000)"
fill="#000000" stroke="none">
<path  d="M12420 9930 c-991 -16 -2191 -68 -3210 -140 -480 -34 -1388 -113
-1655 -144 l-110 -12 150 -9 c128 -8 142 -10 95 -16 -30 -4 -158 -8 -285 -9
-126 -1 -259 -6 -295 -10 l-65 -7 55 -2 c30 -1 159 -6 285 -10 213 -8 294 -18
268 -34 -6 -4 -304 -11 -663 -17 -359 -5 -655 -12 -658 -15 -3 -3 3 -5 14 -5
61 -2 273 -19 296 -25 14 -4 28 -15 31 -24 4 -16 24 -19 178 -25 401 -16 680
-45 757 -79 26 -11 26 -11 -18 -15 -25 -2 -92 1 -150 7 -273 29 -1025 58
-1090 42 -33 -8 -32 -9 20 -10 30 -1 150 -5 265 -11 116 -5 329 -14 475 -21
146 -6 274 -15 285 -19 17 -6 16 -9 -15 -25 -33 -17 -34 -18 -13 -26 13 -5
119 -13 238 -19 118 -7 227 -15 242 -19 27 -8 27 -8 -17 -22 -48 -14 -326 -19
-410 -7 -50 7 -49 7 83 -31 32 -9 59 -20 60 -26 1 -6 -45 -12 -113 -15 -63 -3
-106 -8 -95 -12 11 -4 88 -14 170 -23 150 -16 215 -29 215 -45 0 -18 -45 -23
-265 -28 -139 -3 -216 -8 -195 -13 78 -16 287 -39 421 -45 191 -10 159 -27
-59 -32 -251 -7 -483 11 -394 30 9 2 -46 7 -123 11 -77 4 -150 10 -162 13 -13
4 -23 2 -23 -4 0 -5 42 -17 93 -27 167 -31 167 -39 0 -48 -203 -11 -727 -48
-750 -53 -16 -3 -22 -11 -20 -27 5 -47 -166 -97 -330 -97 -49 0 -183 -9 -298
-20 -116 -12 -286 -23 -378 -27 -93 -3 -163 -9 -155 -13 7 -4 254 -10 548 -14
294 -3 549 -10 565 -15 52 -14 -352 -24 -713 -17 -207 5 -370 3 -422 -3 -228
-27 -412 -43 -835 -71 -650 -44 -676 -47 -424 -49 149 -1 208 -4 218 -13 9
-10 103 -13 404 -12 356 0 394 2 419 18 25 16 42 16 370 -4 336 -20 616 -45
626 -55 3 -3 3 -7 0 -10 -3 -3 -165 -10 -359 -15 -195 -6 -460 -13 -589 -18
l-235 -7 315 -5 c173 -3 323 -10 333 -14 30 -14 13 -31 -39 -38 -27 -3 -186
-7 -354 -8 -168 -2 -357 -5 -420 -9 -107 -6 -97 -7 135 -14 290 -9 395 -16
395 -26 0 -15 -707 -32 -2035 -52 -734 -10 -906 -18 -720 -33 81 -6 261 -24
467 -45 42 -5 200 -6 350 -4 181 4 375 0 578 -11 168 -9 360 -19 427 -23 67
-3 120 -9 118 -13 -2 -4 -478 -10 -1057 -15 -1067 -8 -1315 -13 -1228 -28 25
-4 113 -12 195 -17 254 -17 315 -22 320 -31 7 -10 -71 -26 -220 -44 -66 -8
-121 -19 -123 -25 -2 -5 -37 -59 -77 -120 -73 -109 -90 -150 -83 -206 4 -37
37 -55 293 -165 105 -45 209 -91 233 -103 l43 -22 -238 -12 c-261 -13 -352
-28 -528 -86 -109 -36 -168 -62 -115 -52 61 13 244 36 278 36 20 0 43 -4 50
-9 17 -10 -41 -21 -123 -21 -33 -1 -73 -6 -88 -13 l-28 -12 37 -48 c29 -37 35
-50 25 -60 -18 -18 -303 -25 -1093 -26 l-698 -1 0 -76 0 -76 103 6 c369 23
2031 35 2288 16 134 -10 190 -23 289 -69 59 -27 147 -27 388 0 215 24 435 30
453 12 12 -12 -36 -20 -156 -26 -33 -2 -6 -4 60 -5 137 -2 183 -13 207 -46
l16 -23 -1016 -7 c-1062 -7 -1421 -15 -1744 -41 -469 -37 -846 -82 -873 -105
-28 -23 -18 -40 25 -40 22 0 131 -5 243 -11 200 -10 282 -22 272 -38 -2 -5
-39 -12 -82 -16 -42 -4 -86 -10 -97 -15 -19 -7 -18 -9 14 -29 46 -28 78 -36
240 -61 259 -39 307 -71 119 -78 -55 -3 -98 -6 -96 -8 6 -6 239 -47 511 -91
218 -34 245 -36 486 -38 229 -1 263 -4 332 -23 72 -21 81 -21 145 -8 101 21
195 29 223 18 25 -9 25 -9 -10 -17 -53 -11 -131 -49 -168 -79 -86 -74 -10
-111 350 -170 213 -35 286 -54 367 -95 40 -21 49 -22 130 -12 169 20 229 22
361 11 144 -12 201 -21 268 -46 52 -19 54 -34 5 -35 -33 -1 -31 -2 17 -10 39
-7 61 -16 78 -35 41 -47 32 -54 -70 -54 -51 0 -308 -5 -571 -10 l-478 -9 -67
-40 -67 -39 -835 -5 c-825 -6 -930 -10 -1144 -43 -150 -23 -169 -41 -144 -143
5 -23 -61 -40 -201 -52 -69 -5 -136 -12 -148 -15 -33 -6 -30 -47 4 -74 25 -20
35 -21 104 -15 62 5 79 3 92 -9 13 -14 53 -16 270 -16 140 0 278 -5 307 -10
88 -17 190 -50 190 -62 0 -6 -17 -36 -37 -66 l-38 -55 58 -51 c61 -55 67 -66
39 -66 -24 0 -62 -28 -62 -45 0 -9 17 -16 48 -20 95 -12 90 -21 -19 -34 -126
-14 -170 -25 -201 -51 -40 -34 -27 -38 210 -58 70 -6 107 -14 115 -24 7 -8 32
-20 57 -27 25 -7 73 -30 108 -52 l62 -38 1363 -11 c1292 -10 1836 -17 2942
-40 1354 -28 3722 -31 4240 -5 766 39 1147 47 1835 42 537 -5 830 -12 1230
-31 837 -40 1196 -48 1870 -43 532 3 640 6 725 21 116 20 174 18 465 -21 209
-28 424 -34 845 -23 179 4 206 3 258 -14 31 -11 57 -23 57 -28 0 -4 -31 -8
-69 -8 -39 0 -117 -9 -175 -20 -215 -42 -383 -44 -936 -10 -152 9 -188 7 -98
-5 29 -4 62 -12 73 -16 22 -10 -158 -7 -846 16 -758 26 -1519 36 -2009 28
-627 -11 -568 -13 -595 21 l-23 29 -344 -6 c-189 -4 -559 -12 -823 -19 -1013
-26 -3767 -14 -5075 22 -184 5 -823 15 -1420 21 -1702 19 -2393 -2 -3290 -97
-223 -24 -278 -35 -234 -49 51 -17 65 -26 62 -42 -2 -14 8 -19 62 -26 41 -5
79 -17 101 -32 48 -31 109 -106 109 -134 0 -36 -79 -66 -307 -116 -20 -5 -23
-12 -23 -58 0 -59 -6 -71 -91 -167 -80 -90 -95 -134 -60 -169 27 -27 76 -31
481 -40 328 -8 359 -10 407 -30 117 -47 311 -64 928 -81 204 -6 387 -13 407
-17 69 -11 39 -23 -59 -24 -140 -1 -91 -13 172 -44 121 -14 270 -32 330 -41
135 -19 174 -38 62 -29 -53 4 -97 1 -140 -9 -34 -8 -84 -18 -112 -22 -69 -9
-34 -22 65 -24 41 -1 86 -5 100 -10 l25 -7 -29 -8 c-69 -19 -1036 45 -1356 89
-52 7 -97 12 -99 10 -2 -2 1 -16 8 -30 19 -42 4 -47 -100 -34 -52 6 -114 10
-139 8 l-44 -3 84 -49 c82 -49 158 -76 211 -76 15 0 55 -11 90 -24 35 -13 115
-36 177 -51 61 -15 112 -32 112 -38 0 -14 -168 -3 -293 19 -95 17 -97 17 -111
-2 -12 -15 -26 -19 -73 -18 -33 1 -71 8 -88 17 -45 25 -91 22 -121 -8 -29 -29
-24 -45 15 -45 41 0 91 -20 91 -36 0 -15 -39 -34 -71 -34 -14 0 -19 7 -19 26
0 22 -3 25 -22 20 -13 -3 -72 -16 -133 -29 -140 -30 -155 -35 -155 -52 0 -22
66 -62 167 -101 86 -33 134 -66 120 -81 -14 -14 -115 19 -240 79 l-129 61 -63
-11 c-34 -7 -81 -12 -104 -12 -45 0 -49 -5 -24 -32 15 -17 15 -19 -3 -33 -16
-12 -17 -14 -2 -15 9 0 30 8 46 17 28 16 32 16 49 1 10 -9 31 -22 47 -28 36
-13 30 -20 -33 -34 -58 -13 -63 -27 -14 -41 65 -18 37 -30 -65 -27 l-97 2 117
-35 c191 -56 436 -161 333 -141 -16 3 -70 8 -119 12 l-89 7 17 -24 c28 -41 21
-49 -41 -49 -32 0 -105 7 -163 15 -58 8 -115 15 -128 15 -40 0 -14 -19 36 -26
74 -10 88 -26 17 -19 -153 14 -200 17 -195 12 3 -3 142 -35 310 -72 435 -94
659 -154 585 -155 -12 0 -126 20 -255 45 -263 51 -463 85 -498 85 -34 0 -18
-17 49 -51 93 -46 226 -87 312 -95 42 -4 77 -11 77 -15 0 -5 -55 -9 -122 -9
-134 -1 -137 -7 -15 -36 86 -20 85 -34 -3 -34 -58 0 -91 -12 -70 -25 6 -4 22
-4 35 -1 38 10 121 -31 102 -50 -3 -3 -42 0 -88 6 -46 6 -111 10 -144 8 l-60
-3 60 -23 c33 -12 79 -29 103 -38 43 -16 55 -33 25 -35 -38 -2 65 -19 352 -59
478 -65 831 -126 799 -137 -16 -5 -504 50 -813 93 -139 19 -255 33 -257 31 -2
-2 49 -20 114 -40 64 -20 126 -43 137 -52 19 -15 16 -16 -50 -12 l-70 5 75
-18 c41 -10 152 -34 245 -54 305 -66 438 -120 198 -81 -69 11 -108 14 -115 7
-6 -6 6 -12 36 -16 65 -10 181 -51 235 -83 l46 -28 240 1 c132 1 359 7 505 13
2454 106 3940 201 6515 416 2456 205 3070 231 4765 197 1162 -23 1350 -25
1350 -15 0 6 -30 24 -67 40 l-67 30 40 13 c57 18 114 52 114 67 0 7 -6 13 -12
13 -7 0 -101 11 -208 24 -107 14 -249 29 -315 35 -66 6 -136 14 -155 17 -56 9
-17 21 97 29 56 3 115 10 130 14 l28 8 -25 6 c-65 16 -336 30 -760 38 -372 7
-704 20 -740 28 -3 1 2 6 10 12 22 16 -286 4 -560 -21 -129 -12 -384 -25 -600
-31 -206 -5 -411 -12 -455 -14 -97 -6 -74 9 50 31 79 15 415 21 447 9 8 -3 48
1 89 10 41 9 121 20 179 26 129 12 311 28 328 28 25 2 11 22 -25 38 -36 15
-37 16 -15 24 21 8 141 19 397 35 l110 7 -94 19 c-51 10 -106 25 -122 33 -18
10 -60 15 -116 16 l-88 0 40 15 c88 33 415 61 765 65 l105 2 -84 8 c-87 9
-100 13 -87 27 14 13 327 15 352 1 34 -18 158 -4 201 22 49 30 124 48 238 55
55 3 143 14 196 25 53 10 209 30 345 44 280 28 323 34 344 46 9 5 -20 9 -75 9
-49 1 -99 5 -110 9 -24 10 -4 13 285 41 253 25 425 47 510 65 112 24 122 33
68 61 -28 15 -65 17 -258 16 -233 0 -254 10 -42 22 64 4 145 9 180 12 l62 6 0
34 0 34 109 0 c92 0 112 3 133 19 14 11 45 28 69 38 l44 17 -35 8 c-68 15
-517 30 -714 23 -144 -5 -201 -4 -206 5 -5 8 -111 8 -418 1 -397 -10 -413 -11
-454 -33 -38 -20 -58 -22 -168 -23 -69 0 -192 6 -275 13 -82 7 -303 19 -490
27 -585 26 -852 58 -400 48 253 -5 435 5 474 27 33 18 -22 23 -242 18 -202 -4
-218 -3 -177 10 28 8 112 16 220 19 96 3 166 9 155 13 -18 6 -17 7 5 13 14 3
86 11 160 17 151 12 258 30 530 89 282 61 327 65 545 56 245 -11 320 -10 375
8 44 15 43 15 -90 16 -135 1 -195 13 -134 26 56 13 59 19 9 22 -27 2 -61 6
-75 9 -21 5 -22 7 -8 15 18 10 259 69 508 125 198 44 214 50 257 88 35 30 39
31 161 37 99 5 128 9 137 22 17 24 52 34 161 47 54 6 107 14 117 16 28 9 15
26 -27 38 -44 13 -45 32 -1 30 391 -17 381 -17 358 1 -13 9 -23 26 -23 38 0
12 -7 35 -15 51 -20 37 -21 36 23 36 42 0 56 7 65 34 7 16 15 17 95 11 142
-12 135 -13 150 18 13 26 16 27 92 27 86 0 106 -11 63 -34 l-28 -15 52 -1 c28
0 54 4 58 9 6 11 -33 39 -97 70 -27 13 -48 26 -48 31 0 4 30 20 68 35 37 15
91 40 120 57 l53 30 72 -33 c98 -45 143 -47 241 -12 82 29 102 46 66 56 -25 6
-58 76 -66 141 l-7 46 56 0 c31 0 104 -9 163 -21 58 -11 108 -18 110 -16 3 2
-21 15 -53 27 -135 54 -184 90 -121 90 19 0 19 1 -3 19 -19 16 -21 22 -12 32
10 10 40 10 145 1 212 -19 207 -22 82 61 -120 79 -255 179 -273 201 -10 12 -5
20 30 43 l43 28 200 1 c267 0 292 2 280 14 -6 6 -47 17 -91 25 -162 28 -234
58 -309 127 -49 45 -46 58 14 58 31 0 42 12 22 25 -15 9 -12 42 5 75 18 35 31
37 60 10 20 -19 21 -19 52 -1 17 11 44 36 59 57 25 32 29 46 29 103 l0 66 -82
3 c-63 2 -83 6 -83 17 0 8 5 17 10 20 6 3 10 17 10 31 0 23 -2 24 -70 24 -62
0 -70 2 -70 19 0 10 25 47 56 82 108 120 111 187 8 195 -27 2 -55 6 -62 9 -24
9 -1 25 35 25 l35 0 -57 54 c-47 45 -56 58 -53 82 3 27 0 30 -46 41 -58 14
-63 18 -47 37 11 12 4 19 -38 40 -28 15 -85 54 -128 89 -43 35 -96 76 -118 91
l-40 28 75 -6 c84 -7 108 1 92 30 -8 15 -6 24 10 42 l21 22 -37 0 c-62 0 -116
39 -116 83 0 23 25 27 86 16 55 -10 58 -10 78 15 17 21 33 27 81 32 76 8 92
17 100 54 8 35 14 36 190 45 202 9 377 45 383 78 5 25 -54 30 -149 12 -46 -8
-212 -31 -369 -50 -157 -20 -291 -37 -298 -40 -7 -2 -47 11 -90 29 -42 19
-102 41 -132 51 -30 10 -61 23 -69 31 -13 11 -11 17 10 37 31 32 45 34 299 52
301 21 439 35 464 46 22 10 -454 4 -591 -8 l-74 -6 12 26 c12 26 16 27 89 27
43 0 99 3 126 7 42 6 45 8 24 14 -14 4 -50 8 -80 8 -90 2 -131 11 -128 30 3
14 -12 16 -131 12 -123 -3 -134 -2 -128 13 5 13 -3 21 -34 35 l-41 19 58 6
c103 11 716 48 804 49 47 0 108 -5 135 -13 45 -12 58 -11 107 4 30 10 107 26
169 36 l114 19 -222 -6 c-224 -6 -269 1 -178 25 25 7 45 17 45 23 0 9 -23 10
-82 5 -225 -20 -357 -25 -622 -26 -159 0 -287 2 -285 5 3 2 93 9 200 15 107 5
280 14 384 20 105 6 213 16 240 24 l50 13 -30 13 c-23 10 -133 11 -484 7 -268
-4 -450 -3 -445 3 5 5 88 18 184 29 313 36 554 50 825 48 249 -2 309 4 271 25
-14 8 -151 23 -393 43 -45 4 -90 13 -100 21 -15 11 46 13 414 14 277 0 434 4
438 10 4 6 -6 10 -22 11 -15 0 -37 4 -48 8 -15 6 -11 9 20 14 22 4 64 7 93 7
39 0 54 4 59 16 9 23 -7 29 -115 47 -121 20 -193 42 -223 66 l-23 18 44 32
c23 17 37 31 29 31 -8 0 -93 7 -189 15 -96 8 -180 15 -187 15 -6 0 -19 7 -28
16 -11 12 -46 19 -126 25 -61 4 -114 10 -117 13 -3 3 6 6 21 6 14 0 29 5 32
10 4 7 -116 10 -352 11 -197 0 -367 4 -378 9 l-20 9 20 0 c63 3 711 42 765 46
162 14 330 39 327 49 -2 5 -22 16 -46 24 -87 29 -61 65 96 131 105 44 146 72
137 95 -4 10 13 14 72 19 53 4 82 11 93 23 15 15 8 16 -114 10 -275 -13 -542
-19 -578 -12 -82 15 -19 26 154 26 l180 0 67 32 c62 30 77 33 197 38 221 9 98
19 -295 23 -258 2 -382 7 -395 15 -19 11 -18 11 6 12 14 0 84 4 155 10 71 5
192 14 268 20 77 6 145 14 152 18 11 6 8 18 -12 56 -41 76 -32 81 179 83 95 1
180 2 190 2 10 1 17 9 17 21 0 26 -23 36 -98 43 -84 9 -112 17 -112 32 0 23
38 46 121 73 87 28 109 50 70 71 -10 6 -145 27 -298 47 -153 19 -336 47 -408
61 -112 21 -174 26 -440 33 -283 8 -501 23 -513 35 -11 11 9 14 138 25 74 6
184 15 244 20 107 8 154 24 105 34 -92 19 -776 10 -1012 -13 -171 -18 -311
-22 -327 -12 -25 17 0 42 66 67 l59 23 -115 1 c-110 2 -114 2 -82 16 38 17
178 47 297 64 134 19 244 42 262 55 13 10 -1 13 -79 17 -97 5 -151 20 -112 31
10 3 41 8 67 12 27 4 66 13 88 20 22 8 120 19 225 25 102 6 255 19 340 30 85
11 159 20 164 20 6 0 10 4 10 8 0 5 -53 12 -117 15 -135 7 -210 20 -258 43
-38 18 -55 51 -34 65 8 5 100 9 204 10 105 1 204 4 220 8 46 10 -301 35 -525
37 -107 1 -238 7 -290 13 -150 17 -642 38 -1440 61 -449 13 -2581 20 -3200 10z
m-5065 -1670 c1737 -36 2002 -46 1240 -48 -722 -2 -2431 26 -2418 39 5 5 119
10 253 12 135 1 295 3 355 5 61 1 317 -3 570 -8z m7393 -179 c91 -8 112 -14
98 -28 -15 -16 -926 -14 -1385 1 -251 9 -503 16 -560 16 -57 0 -101 3 -97 7
20 20 1705 23 1944 4z m2885 -985 c15 -4 27 -13 27 -21 0 -15 -52 -11 -100 8
l-25 10 25 7 c14 4 30 6 35 4 6 -1 22 -5 38 -8z m-1100 -1197 c74 -17 106 -19
162 -13 95 11 259 11 320 0 l50 -9 -35 -15 c-52 -23 -250 -20 -450 7 -91 12
-176 25 -190 28 -23 5 -24 6 -5 13 31 13 48 12 148 -11z m1617 -1094 c55 -28
64 -45 25 -45 -24 0 -85 25 -85 34 0 3 -3 11 -6 20 -9 22 9 20 66 -9z m-425
-331 c-24 -18 -106 -15 -113 4 -3 9 14 12 65 12 63 -1 66 -2 48 -16z m-5525
-1024 c-64 -11 -1047 -24 -1037 -14 4 4 69 11 145 14 195 9 946 9 892 0z
m2140 -9 c0 -14 -36 -20 -234 -36 -197 -16 -304 -18 -346 -6 -23 6 -24 7 -5
15 11 4 105 12 210 18 104 5 192 12 194 14 9 8 181 4 181 -5z m-661 -40 c23
-15 -78 -22 -669 -46 -372 -16 -1087 -19 -1130 -5 -19 6 -10 8 35 9 33 1 278
10 545 21 657 27 611 26 925 28 154 1 286 -2 294 -7z m-9886 -88 c-7 -2 -21
-2 -30 0 -10 3 -4 5 12 5 17 0 24 -2 18 -5z m1472 -8 c242 -9 458 -19 479 -24
21 -5 46 -17 55 -26 15 -16 4 -16 -159 -11 -407 15 -890 52 -908 71 -8 7 50 6
533 -10z m7340 -25 c-67 -11 -231 -10 -190 0 17 4 77 8 135 7 87 0 96 -1 55
-7z m-8310 -50 c8 -12 -171 -12 -200 0 -13 6 18 9 87 9 61 1 109 -3 113 -9z
m11985 -30 c0 -13 -77 -49 -103 -50 -11 0 -16 5 -13 13 3 6 9 20 12 30 5 13
18 17 55 17 28 0 49 -5 49 -10z m-387 -55 c2 -15 -44 -34 -125 -52 -57 -12
-110 -14 -238 -10 -131 4 -171 3 -195 -9 -28 -13 -26 -14 45 -10 41 2 84 0 95
-4 l20 -7 -20 -6 c-42 -13 -152 -27 -211 -27 -51 0 -64 4 -75 20 -14 20 -16
20 -84 5 -38 -8 -81 -15 -95 -16 -18 -1 -12 -4 20 -14 l45 -12 -28 -12 c-39
-15 -191 -15 -181 1 5 8 -19 10 -97 5 -57 -3 -122 -2 -144 2 l-40 7 30 7 c194
44 569 88 1080 127 72 6 135 12 140 15 17 7 56 0 58 -10z m-13179 -89 c28 -13
58 -26 66 -29 36 -13 -32 -5 -144 17 -149 31 -178 51 -57 42 54 -4 102 -15
135 -30z m11581 20 l50 -13 -80 -8 c-44 -4 -134 -8 -200 -9 -104 -1 -126 2
-165 21 l-45 21 195 1 c133 0 211 -4 245 -13z m-11505 -125 c47 -11 101 -26
120 -35 l35 -16 -65 4 c-64 5 -175 37 -194 56 -14 14 6 12 104 -9z m430 -82
c16 -5 -5 -8 -60 -8 -92 -1 -133 6 -124 20 6 10 141 1 184 -12z m494 -5 c32
-5 43 -10 34 -15 -15 -10 -239 0 -278 12 -31 9 178 12 244 3z m2566 -45 c43
-1 49 -3 30 -9 -33 -10 -150 -12 -220 -3 l-55 8 45 6 c25 4 68 5 95 3 28 -2
75 -4 105 -5z m-3970 -39 c56 -11 67 -16 57 -26 -8 -9 -197 7 -197 16 0 19 67
24 140 10z m203 -31 c109 -27 124 -44 33 -35 -73 7 -136 28 -136 45 0 15 10
14 103 -10z m5597 -29 c-34 -11 -150 -11 -175 0 -13 5 20 8 90 8 70 0 101 -3
85 -8z m-3400 -21 c118 -6 238 -14 265 -19 96 -18 -685 10 -880 30 -105 12
321 4 615 -11z m-2350 -51 c80 -25 104 -37 73 -38 -28 0 -185 49 -198 62 -13
13 39 3 125 -24z m-188 -138 c35 -10 72 -26 83 -34 20 -15 20 -15 -2 -16 -22
0 -193 58 -193 66 0 10 53 2 112 -16z m10986 -10 c14 0 23 -2 20 -5 -10 -10
-165 -26 -408 -40 -140 -8 -274 -18 -297 -21 -51 -8 -60 11 -10 19 38 7 435
45 522 51 33 2 80 2 104 0 24 -2 55 -4 69 -4z m-8028 -60 c-14 -4 -47 -8 -75
-8 -27 0 -61 4 -75 8 -16 5 11 8 75 8 64 0 91 -3 75 -8z m4970 0 c-8 -5 -53
-9 -100 -9 -106 1 -71 17 40 18 52 0 70 -2 60 -9z m2190 1 c0 -5 -10 -12 -22
-15 -24 -7 -409 -26 -513 -25 -54 1 -56 2 -25 9 19 5 103 14 185 20 83 6 161
13 175 14 62 7 200 5 200 -3z m-2895 -41 c-122 -16 -390 -30 -803 -42 -327 -9
-425 -9 -434 0 -9 9 9 12 80 12 51 0 181 5 290 11 474 25 1003 36 867 19z
m-6458 -35 c125 -14 235 -28 243 -30 37 -11 -307 6 -410 20 -295 40 -173 47
167 10z m3118 6 l70 -6 -60 -8 c-59 -7 -332 7 -343 18 -7 7 245 4 333 -4z
m1420 -21 c-29 -12 -344 -12 -325 0 8 5 89 9 180 9 101 0 157 -4 145 -9z
m5275 -9 c-8 -5 -78 -14 -155 -20 -177 -14 -172 -14 -157 1 14 14 113 25 237
26 54 1 84 -2 75 -7z m-9507 -18 c-7 -2 -19 -2 -25 0 -7 3 -2 5 12 5 14 0 19
-2 13 -5z m-1386 -43 c17 -11 17 -11 0 -6 -10 3 -43 6 -73 6 -34 0 -54 4 -54
11 0 15 101 6 127 -11z m10349 -45 c-21 -16 -66 -19 -106 -8 -23 7 -21 8 15
14 22 3 56 7 75 7 33 1 34 0 16 -13z m-269 -15 c-16 -5 -35 -14 -43 -21 -9 -7
-27 -9 -52 -4 -20 3 -98 6 -172 5 -91 -1 -132 2 -125 9 12 12 88 17 280 18 90
1 130 -2 112 -7z m1483 2 c0 -5 -12 -15 -27 -22 -21 -11 -85 -15 -238 -17
-115 -1 -205 -1 -200 2 6 2 105 11 220 20 116 9 212 19 214 21 8 7 31 4 31 -4z
m-10992 -233 c50 -13 78 -29 48 -29 -34 0 -161 22 -176 31 -23 13 72 11 128
-2z m3587 -189 c45 -7 41 -7 -40 -8 -49 -1 -108 3 -130 7 -34 7 -28 9 40 9 44
0 103 -3 130 -8z"/>
<path d="M6345 9460 c33 -4 94 -8 135 -7 l75 0 -60 7 c-33 4 -94 8 -135 7
l-75 0 60 -7z"/>
<path d="M15448 4293 c28 -2 76 -2 105 0 28 2 5 3 -53 3 -58 0 -81 -1 -52 -3z"/>
<path d="M16315 3640 c19 -8 113 -14 104 -6 -2 2 -31 6 -64 9 -38 4 -53 3 -40
-3z"/>
<path d="M16500 3627 c48 -23 54 -29 39 -38 -8 -5 -25 -9 -39 -10 l-25 -1 25
-8 c14 -4 73 -8 131 -9 76 -1 111 -5 125 -16 17 -13 8 -14 -91 -15 -96 -1
-108 -2 -92 -14 10 -8 53 -22 95 -31 131 -28 204 -50 204 -60 -1 -5 -24 -16
-54 -23 -45 -12 -76 -12 -213 2 -223 23 -252 21 -142 -10 111 -30 126 -39 133
-74 4 -17 15 -31 28 -35 11 -4 111 -8 221 -11 169 -3 194 -2 158 9 -81 24 -65
47 33 47 79 0 124 9 124 25 0 7 -18 24 -40 39 -22 14 -40 30 -40 35 0 5 25 19
56 31 l55 23 -43 24 c-24 13 -56 37 -73 53 -35 34 -85 43 -320 60 -82 5 -179
12 -215 15 -56 4 -62 3 -40 -8z"/>
<path d="M13935 2549 c-157 -14 -169 -28 -20 -22 146 5 178 9 170 23 -7 11 -7
11 -150 -1z"/>
<path d="M11200 60 c-405 -8 -938 -26 -1145 -40 -60 -4 754 -7 1810 -7 1056 0
1882 3 1835 7 -159 14 -604 31 -1090 40 -529 10 -794 10 -1410 0z"/>
</g>
</svg>
