<?xml version="1.0" encoding="utf-8"?>
<!-- Generator: Adobe Illustrator 26.3.1, SVG Export Plug-In . SVG Version: 6.00 Build 0)  -->
<svg version="1.1" id="Your_Artwork" xmlns="http://www.w3.org/2000/svg" xmlns:xlink="http://www.w3.org/1999/xlink" x="0px"
	 y="0px" viewBox="0 0 340.16 340.16" style="enable-background:new 0 0 340.16 340.16;" xml:space="preserve">
<style type="text/css">
	.st0{font-family:'Copperplate-Bold';}
	.st1{font-size:158.1691px;}
	.st2{font-size:136.7338px;}
	.st3{letter-spacing:-3;}
	.st4{fill:#F7941D;}
</style>
<text transform="matrix(1 -6.230004e-03 6.230004e-03 1 14.8023 234.952)"><tspan x="0" y="0" class="st0 st1">Q</tspan><tspan x="114.2" y="0" class="st0 st2 st3">O</tspan><tspan x="209.5" y="0" class="st0 st1 st3">P</tspan></text>
<circle cx="129.09" cy="227.07" r="7.44"/>
<circle cx="224.94" cy="227.07" r="7.44"/>
<path class="st4" d="M238.94,106.05c-1.54-0.76-6.59-3.15-6.59-3.15s-7.12,8.89-13.41,5.78c-1.31-0.66-2.32-1.75-3.11-3.08
	c-0.1-0.17-0.19-0.34-0.28-0.51c-0.07-0.12-0.13-0.25-0.19-0.38c-2.33-5.05-2-12.28-2-12.28l-0.1-0.04
	c0.01-0.11,0.01-0.18,0.01-0.18l-6.08-2c0,0-7.55,10.23-14.26,8.89c-1.29-0.26-2.46-1.04-3.51-2.14c-0.03-0.03-0.05-0.05-0.07-0.08
	c-3.87-4.32-6.07-12.88-6.44-14.41h-8.16c-0.37,1.53-2.57,10.1-6.44,14.41c-0.02,0.03-0.04,0.06-0.07,0.08
	c-1.05,1.11-2.22,1.89-3.51,2.14c-6.72,1.34-14.26-8.89-14.26-8.89l-6.08,2c0,0,0,0.07,0,0.19l-0.1,0.03c0,0,0.35,7.61-2.19,12.66
	c-0.09,0.17-0.18,0.34-0.28,0.51c-0.78,1.32-1.79,2.42-3.11,3.08c-6.3,3.11-13.41-5.78-13.41-5.78s-5.05,2.39-6.59,3.15l0.06,0.13
	c-0.02,0.01-0.04,0.02-0.06,0.03l14.61,37.55c0.02-0.01,0.04-0.02,0.07-0.04v0.01c0.17-0.1,0.35-0.19,0.53-0.3
	c2.01-1.08,4.88-2.48,8.56-3.89c0.3-0.12,0.63-0.24,0.95-0.36c0.66-0.25,1.34-0.49,2.05-0.73c0.39-0.13,0.79-0.27,1.19-0.39
	c0.44-0.15,0.89-0.3,1.34-0.43c0.46-0.15,0.92-0.3,1.4-0.42c0.48-0.14,0.96-0.28,1.45-0.41c0.92-0.26,1.87-0.5,2.85-0.74
	c0.88-0.21,1.77-0.42,2.69-0.61c0.41-0.09,0.83-0.18,1.26-0.26c0.37-0.08,0.75-0.15,1.13-0.22c5.73-1.07,12.25-1.77,19.51-1.77h1.06
	c7.22,0,13.7,0.7,19.4,1.75c0.38,0.06,0.75,0.13,1.12,0.21c0.47,0.1,0.92,0.19,1.38,0.29c0.91,0.19,1.81,0.4,2.69,0.61
	c0.98,0.24,1.92,0.49,2.85,0.74c0.49,0.13,0.97,0.27,1.45,0.41c0.48,0.12,0.94,0.27,1.4,0.42c0.45,0.14,0.9,0.29,1.34,0.43
	c0.44,0.13,0.88,0.29,1.3,0.43c0.67,0.24,1.31,0.47,1.94,0.7c0.32,0.12,0.65,0.24,0.95,0.36c3.67,1.41,6.54,2.8,8.56,3.89
	c0.18,0.1,0.36,0.2,0.53,0.3v-0.01c0.03,0.02,0.05,0.03,0.07,0.04l14.61-37.55c-0.02-0.01-0.04-0.02-0.06-0.03L238.94,106.05z
	 M154.76,121.18c-2.4,0-4.34-1.94-4.34-4.34c0-2.4,1.94-4.34,4.34-4.34c2.4,0,4.35,1.94,4.35,4.34
	C159.12,119.24,157.16,121.18,154.76,121.18z M202.82,121.18c-2.4,0-4.35-1.94-4.35-4.34c0-2.4,1.95-4.34,4.35-4.34
	c2.4,0,4.34,1.94,4.34,4.34C207.16,119.24,205.22,121.18,202.82,121.18z"/>
<path class="st4" d="M223.3,148.57l-3.55,8.67c-5.23-2.83-18.48-8.86-37.64-9.57c-1.06-0.05-2.17-0.07-3.28-0.07
	c-1.12,0-2.22,0.02-3.29,0.07c-19.16,0.71-32.41,6.74-37.64,9.57l-3.55-8.67c5.81-3.26,21.16-10.39,43.96-10.39
	c0.17,0,0.35,0,0.52,0.01c0.16-0.01,0.34-0.01,0.51-0.01C202.14,138.18,217.49,145.31,223.3,148.57z"/>
</svg>
